<svg width="153" height="34" viewBox="0 0 153 34" fill="none" xmlns="http://www.w3.org/2000/svg">
<path d="M59.3319 27.2815C57.5679 27.2815 56.2637 26.8686 55.4193 26.043C54.5936 25.1985 54.1807 23.9412 54.1807 22.2711V9.37926L57.7556 8.0563V22.3556C57.7556 23.0499 57.9432 23.5659 58.3185 23.9037C58.6938 24.2415 59.2849 24.4104 60.0919 24.4104C60.4109 24.4104 60.6923 24.3916 60.9363 24.3541C61.199 24.2978 61.443 24.2321 61.6681 24.157V26.9156C61.443 27.0281 61.124 27.1126 60.7111 27.1689C60.2983 27.244 59.8385 27.2815 59.3319 27.2815ZM51.4222 15.4311V12.6444H61.6681V15.4311H51.4222ZM64.2386 27V12.6444H67.7853V27H64.2386ZM64.0698 10.28V6.36741H67.9261V10.28H64.0698ZM77.7163 27.2815C76.2714 27.2815 74.9953 26.9625 73.8882 26.3244C72.7998 25.6864 71.9366 24.8044 71.2986 23.6785C70.6793 22.5338 70.3697 21.239 70.3697 19.7941C70.3697 18.3491 70.6793 17.0731 71.2986 15.9659C71.9366 14.84 72.7998 13.958 73.8882 13.32C74.9953 12.682 76.2714 12.363 77.7163 12.363C78.8986 12.363 79.9682 12.5881 80.9252 13.0385C81.8823 13.4701 82.6704 14.0894 83.2897 14.8963C83.9089 15.6844 84.303 16.604 84.4719 17.6548H81.066C80.8595 16.8854 80.4655 16.2849 79.8837 15.8533C79.302 15.4217 78.5983 15.2059 77.7726 15.2059C77.0032 15.2059 76.3371 15.3936 75.7741 15.7689C75.2299 16.1442 74.8077 16.679 74.5074 17.3733C74.2072 18.0677 74.0571 18.8746 74.0571 19.7941C74.0571 20.7323 74.2072 21.5486 74.5074 22.243C74.8077 22.9373 75.2393 23.4815 75.8023 23.8756C76.3652 24.2509 77.022 24.4385 77.7726 24.4385C78.5983 24.4385 79.302 24.2227 79.8837 23.7911C80.4655 23.3595 80.8595 22.759 81.066 21.9896H84.4719C84.303 23.0405 83.8995 23.9694 83.2615 24.7763C82.6423 25.5644 81.8541 26.1837 80.8971 26.6341C79.9588 27.0657 78.8986 27.2815 77.7163 27.2815ZM87.0266 27V6.5363H90.5732V27H87.0266ZM96.2873 27L89.7569 19.5407L96.0903 12.6444H100.369L93.0503 20.1881L93.2473 18.8652L100.65 27H96.2873ZM108.179 27.2815C106.659 27.2815 105.326 26.9625 104.182 26.3244C103.056 25.6864 102.174 24.8044 101.536 23.6785C100.917 22.5526 100.607 21.2578 100.607 19.7941C100.607 18.3304 100.917 17.0449 101.536 15.9378C102.174 14.8119 103.056 13.9393 104.182 13.32C105.308 12.682 106.621 12.363 108.122 12.363C109.549 12.363 110.787 12.6632 111.838 13.2637C112.889 13.8454 113.705 14.6711 114.287 15.7407C114.869 16.8104 115.16 18.0583 115.16 19.4844C115.16 19.7472 115.15 19.9911 115.131 20.2163C115.113 20.4415 115.084 20.6667 115.047 20.8919H102.802V18.4148H112.317L111.585 19.0904C111.585 17.7393 111.275 16.7259 110.656 16.0504C110.037 15.3748 109.173 15.037 108.066 15.037C106.865 15.037 105.908 15.4499 105.195 16.2756C104.501 17.1012 104.154 18.2928 104.154 19.8504C104.154 21.3891 104.501 22.5714 105.195 23.397C105.908 24.204 106.912 24.6074 108.207 24.6074C108.958 24.6074 109.614 24.4667 110.177 24.1852C110.74 23.9037 111.153 23.4721 111.416 22.8904H114.765C114.296 24.2415 113.499 25.3111 112.373 26.0993C111.266 26.8874 109.868 27.2815 108.179 27.2815ZM123.957 27.2815C122.193 27.2815 120.889 26.8686 120.045 26.043C119.219 25.1985 118.806 23.9412 118.806 22.2711V9.37926L122.381 8.0563V22.3556C122.381 23.0499 122.569 23.5659 122.944 23.9037C123.319 24.2415 123.91 24.4104 124.717 24.4104C125.036 24.4104 125.318 24.3916 125.562 24.3541C125.824 24.2978 126.068 24.2321 126.293 24.157V26.9156C126.068 27.0281 125.749 27.1126 125.336 27.1689C124.924 27.244 124.464 27.2815 123.957 27.2815ZM116.048 15.4311V12.6444H126.293V15.4311H116.048ZM128.864 27V12.6444H132.411V27H128.864ZM128.695 10.28V6.36741H132.551V10.28H128.695ZM136.176 27V12.6444H139.638V16.0222H139.723V27H136.176ZM146.253 27V17.9363C146.253 17.0543 146.028 16.3881 145.577 15.9378C145.127 15.4874 144.47 15.2622 143.607 15.2622C142.856 15.2622 142.181 15.4311 141.58 15.7689C140.999 16.1067 140.539 16.5758 140.201 17.1763C139.882 17.7768 139.723 18.4711 139.723 19.2593L139.357 15.8252C139.844 14.7743 140.558 13.9393 141.496 13.32C142.434 12.682 143.56 12.363 144.874 12.363C146.431 12.363 147.642 12.8039 148.505 13.6859C149.387 14.5679 149.828 15.7407 149.828 17.2044V27H146.253Z" fill="black"/>
<path d="M28.5 3.84128V1.42858C28.5 0.762327 29.0316 0.222229 29.6875 0.222229C30.3434 0.222229 30.875 0.762334 30.875 1.42858V2.63493H32.0625C32.8002 2.63493 33.4202 3.14754 33.5959 3.84128H34.1665C35.2563 3.84128 36.9979 4.59475 37.2623 5.66882L38 8.66667C38 9.33296 37.4684 9.87302 36.8125 9.87302C36.1566 9.87302 35.625 9.33296 35.625 8.66667H32.0625C32.0625 8.66667 30.8766 16.5652 29.6875 18.3175C28.1985 20.5116 24.9375 21.9365 24.9375 21.9365V32.1905C24.9375 33.1899 24.14 34 23.1562 34H21.9687C20.985 34 20.1875 33.1899 20.1875 32.1905V21.9365H9.5L8.40564 27.4951C8.34419 27.8074 8.34419 28.1291 8.40564 28.4415L9.21589 32.5571C9.36292 33.3036 8.80086 34 8.05147 34H6.21028C5.36118 34 4.63014 33.3912 4.46362 32.5454L3.65565 28.4415C3.59416 28.1291 3.59416 27.8074 3.65565 27.4951L4.75 21.9365L2.375 15.9048L0 20.7302V15.9048C0 13.2398 2.12665 11.0794 4.75 11.0794L5.99648 9.03725C7.51057 6.55669 10.1795 3.84128 13.0526 3.84128C15.9052 3.84128 18.558 5.32893 20.0782 7.78106C21.8108 10.5759 20.519 12.2857 23.75 12.2857C26.0313 11.8643 28.5 3.84128 28.5 3.84128Z" fill="#4F4CEE"/>
</svg>
